<?xml version="1.0" standalone="no"?><!DOCTYPE svg PUBLIC "-//W3C//DTD SVG 1.1//EN" "http://www.w3.org/Graphics/SVG/1.1/DTD/svg11.dtd"><svg t="1735406100881" class="icon" viewBox="0 0 1024 1024" version="1.1" xmlns="http://www.w3.org/2000/svg" p-id="1457" xmlns:xlink="http://www.w3.org/1999/xlink" width="64" height="64"><path d="M906.6496 562.52416C876.544 759.86944 706.27328 911.36 501.76 911.36c-225.62816 0-409.6-184.38144-409.6-411.32032A411.68896 411.68896 0 0 1 309.0432 137.09312a395.53024 395.53024 0 0 0-11.22304 93.9008c0 217.88672 176.55808 395.38688 394.09664 395.38688 77.0048 0 151.2448-22.36416 214.7328-63.85664z m55.82848-65.18784a21.21728 21.21728 0 1 0-35.84-15.5648 340.86912 340.86912 0 0 1-234.7008 93.40928c-189.09184 0-342.91712-154.4192-342.91712-344.18688 0-48.4352 9.91232-95.37536 29.42976-139.55072 3.44064-7.76192 1.96608-16.81408-3.74784-23.08096a21.17632 21.17632 0 0 0-22.58944-5.75488C165.9904 126.75072 40.96 302.55104 40.96 500.06016 40.96 755.05664 247.68512 962.56 501.76 962.56 755.85536 962.56 962.56 755.07712 962.56 500.03968c0-0.73728-0.02048-1.49504-0.08192-2.70336z" fill="#ffffff" p-id="1458"></path></svg>