<?xml version="1.0" standalone="no"?><!DOCTYPE svg PUBLIC "-//W3C//DTD SVG 1.1//EN" "http://www.w3.org/Graphics/SVG/1.1/DTD/svg11.dtd"><svg t="1735573492501" class="icon" viewBox="0 0 1024 1024" version="1.1" xmlns="http://www.w3.org/2000/svg" p-id="9646" xmlns:xlink="http://www.w3.org/1999/xlink" width="64" height="64"><path d="M979.3 909.4H606.4c-10.8 0-37.7 17.8-62.7 50.9-11.1 13.2-15.1 18.6-31.8 18.7-16.6-0.1-20.7-5.5-31.8-18.7-24.9-33.1-51.8-50.9-62.7-50.9H0V248.2h59.6v601.9c0-0.3 377.8-0.4 377.8-0.4s63.6 22.4 74.6 49.7c10.9-27.3 74.6-49.7 74.6-49.7s377.8 0 377.8 0.4V248.2h59.6v661.1h-44.7z m-89.5-154.1H601c-30.7 0.7-56.1 24.2-59.2 54.8-2.2 11.6-29.8 14.8-29.8 14.8s-29.7-4.6-29.8-14.8c-3.1-30.6-28.4-54.1-59.1-54.8H134.2V49.4h309c27.5 0 51.4 18.6 68.8 37.8 17.4-19.2 41.4-37.8 68.8-37.8h309v705.9zM482.2 109H193.9v586.6h288.3V109z m347.9 0H541.8v586.6h288.3V109z m0 0" p-id="9647"></path></svg>