<?xml version="1.0" standalone="no"?><!DOCTYPE svg PUBLIC "-//W3C//DTD SVG 1.1//EN" "http://www.w3.org/Graphics/SVG/1.1/DTD/svg11.dtd"><svg t="1735406196120" class="icon" viewBox="0 0 1024 1024" version="1.1" xmlns="http://www.w3.org/2000/svg" p-id="1821" xmlns:xlink="http://www.w3.org/1999/xlink" width="64" height="64"><path d="M850.5344 542.06464h122.88A30.1056 30.1056 0 0 0 1003.52 512a30.1056 30.1056 0 0 0-30.1056-30.08512h-122.88A30.1056 30.1056 0 0 0 820.4288 512c0 16.5888 13.5168 30.06464 30.08512 30.06464zM751.37024 302.6944c8.02816 0 15.58528-3.13344 21.27872-8.8064l86.89664-86.89664a30.1056 30.1056 0 0 0-21.27872-51.36384 29.9008 29.9008 0 0 0-21.25824 8.8064l-86.89664 86.91712a30.1056 30.1056 0 0 0 21.25824 51.34336zM481.8944 173.44512a30.1056 30.1056 0 0 0 60.17024 0v-122.88A30.1056 30.1056 0 0 0 512 20.48a30.1056 30.1056 0 0 0-30.1056 30.08512v122.88zM251.33056 293.888c5.69344 5.67296 13.23008 8.8064 21.27872 8.8064 8.02816 0 15.5648-3.13344 21.25824-8.8064 5.69344-5.69344 8.8064-13.25056 8.8064-21.27872 0-8.02816-3.11296-15.58528-8.8064-21.25824l-86.87616-86.91712a29.9008 29.9008 0 0 0-21.27872-8.8064 30.1056 30.1056 0 0 0-21.27872 51.34336l86.89664 86.89664zM173.44512 542.06464A30.1056 30.1056 0 0 0 203.53024 512a30.1056 30.1056 0 0 0-30.08512-30.08512h-122.88A30.1056 30.1056 0 0 0 20.48 512c0 16.5888 13.49632 30.06464 30.08512 30.06464h122.88zM272.5888 721.3056c-8.02816 0-15.5648 3.11296-21.25824 8.8064L164.4544 817.00864A30.1056 30.1056 0 0 0 185.71264 868.352a29.9008 29.9008 0 0 0 21.27872-8.8064l86.87616-86.89664a29.9008 29.9008 0 0 0 8.8064-21.27872c0-8.02816-3.11296-15.5648-8.8064-21.25824a29.85984 29.85984 0 0 0-21.25824-8.8064z m-82.67776 138.50624zM542.06464 850.5344A30.1056 30.1056 0 0 0 512 820.44928a30.1056 30.1056 0 0 0-30.1056 30.1056v122.88a30.1056 30.1056 0 0 0 60.17024 0v-122.88zM772.64896 730.112a29.85984 29.85984 0 0 0-21.27872-8.8064 30.1056 30.1056 0 0 0-21.25824 51.36384l86.89664 86.87616c5.67296 5.67296 13.23008 8.8064 21.25824 8.8064a30.1056 30.1056 0 0 0 21.27872-51.36384l-86.89664-86.87616z m69.81632 129.69984zM788.48 512c0 152.69888-123.78112 276.48-276.48 276.48S235.52 664.69888 235.52 512 359.30112 235.52 512 235.52 788.48 359.30112 788.48 512zM737.28 512c0-124.416-100.864-225.28-225.28-225.28s-225.28 100.864-225.28 225.28 100.864 225.28 225.28 225.28 225.28-100.864 225.28-225.28z" fill="#ffffff" p-id="1822"></path></svg>