<?xml version="1.0" standalone="no"?><!DOCTYPE svg PUBLIC "-//W3C//DTD SVG 1.1//EN" "http://www.w3.org/Graphics/SVG/1.1/DTD/svg11.dtd"><svg t="1742614684133" class="icon" viewBox="0 0 1024 1024" version="1.1" xmlns="http://www.w3.org/2000/svg" p-id="1489" xmlns:xlink="http://www.w3.org/1999/xlink" width="64" height="64"><path d="M835.936 309.664c-16.288 0-29.472 13.728-29.472 30.688 0 1.856-0.032 154.528-0.064 158.752-2.592 164.352-134.688 298.048-294.368 298.048-160.416 0-292.448-134.304-294.4-299.232-0.032-4.448-0.032-156.16-0.032-157.568 0-16.96-13.152-30.688-29.472-30.688-16.256 0-29.408 13.728-29.408 30.688 0 1.376 0 157.152 0.032 158.24 2.208 188.256 144.928 343.2 323.872 358.688 0 0.288-0.032 0.576-0.032 0.96l0 83.104-133.824 0c-16.288 0-29.472 13.728-29.472 30.688s13.152 30.688 29.472 30.688l326.592 0c16.288 0 29.408-13.76 29.408-30.688 0-16.96-13.152-30.688-29.408-30.688l-133.92 0 0-83.104c0-0.384 0-0.672-0.032-0.96 178.208-15.52 320.864-169.696 323.872-357.12 0-1.888 0.032-157.92 0.032-159.808 0.032-16.992-13.152-30.688-29.376-30.688l0 0 0 0z" p-id="1490"></path><path d="M512.032 21.312c-112 0-203.168 94.112-203.168 209.728l0 264.992c0 115.616 91.168 209.728 203.168 209.728s203.168-94.112 203.168-209.728l0-264.992c0-115.648-91.168-209.728-203.168-209.728zM656.352 496.032c0 81.824-64.736 148.384-144.288 148.384s-144.288-66.592-144.288-148.384l0-264.992c0-81.824 64.736-148.384 144.288-148.384s144.288 66.592 144.288 148.384l0 264.992z" p-id="1491"></path></svg>